<mxfile host="app.diagrams.net" modified="2022-11-01T09:14:38.930Z" agent="5.0 (Windows NT 10.0; Win64; x64) AppleWebKit/537.36 (KHTML, like Gecko) Chrome/107.0.0.0 Safari/537.36 Edg/107.0.1418.26" etag="mvZArw9ShD0byvqIbZlS" version="20.5.1" type="github">
  <diagram id="mCmm3zI2j_GmOsj9FlFo" name="第 1 页">
    <mxGraphModel dx="1550" dy="859" grid="1" gridSize="10" guides="1" tooltips="1" connect="1" arrows="1" fold="1" page="1" pageScale="1" pageWidth="827" pageHeight="1169" math="0" shadow="0">
      <root>
        <mxCell id="0" />
        <mxCell id="1" parent="0" />
        <mxCell id="w3v8V3FECYTJlfRQlJlP-1" value="BaseHandler" style="swimlane;fontStyle=3;align=center;verticalAlign=top;childLayout=stackLayout;horizontal=1;startSize=26;horizontalStack=0;resizeParent=1;resizeParentMax=0;resizeLast=0;collapsible=1;marginBottom=0;" vertex="1" parent="1">
          <mxGeometry x="335" y="330" width="160" height="112" as="geometry" />
        </mxCell>
        <mxCell id="w3v8V3FECYTJlfRQlJlP-2" value="+ next: Handler" style="text;strokeColor=none;fillColor=none;align=left;verticalAlign=top;spacingLeft=4;spacingRight=4;overflow=hidden;rotatable=0;points=[[0,0.5],[1,0.5]];portConstraint=eastwest;" vertex="1" parent="w3v8V3FECYTJlfRQlJlP-1">
          <mxGeometry y="26" width="160" height="26" as="geometry" />
        </mxCell>
        <mxCell id="w3v8V3FECYTJlfRQlJlP-3" value="" style="line;strokeWidth=1;fillColor=none;align=left;verticalAlign=middle;spacingTop=-1;spacingLeft=3;spacingRight=3;rotatable=0;labelPosition=right;points=[];portConstraint=eastwest;strokeColor=inherit;" vertex="1" parent="w3v8V3FECYTJlfRQlJlP-1">
          <mxGeometry y="52" width="160" height="8" as="geometry" />
        </mxCell>
        <mxCell id="w3v8V3FECYTJlfRQlJlP-4" value="+ handle()" style="text;strokeColor=none;fillColor=none;align=left;verticalAlign=top;spacingLeft=4;spacingRight=4;overflow=hidden;rotatable=0;points=[[0,0.5],[1,0.5]];portConstraint=eastwest;fontStyle=2" vertex="1" parent="w3v8V3FECYTJlfRQlJlP-1">
          <mxGeometry y="60" width="160" height="26" as="geometry" />
        </mxCell>
        <mxCell id="w3v8V3FECYTJlfRQlJlP-12" value="+ checkNext()" style="text;strokeColor=none;fillColor=none;align=left;verticalAlign=top;spacingLeft=4;spacingRight=4;overflow=hidden;rotatable=0;points=[[0,0.5],[1,0.5]];portConstraint=eastwest;" vertex="1" parent="w3v8V3FECYTJlfRQlJlP-1">
          <mxGeometry y="86" width="160" height="26" as="geometry" />
        </mxCell>
        <mxCell id="w3v8V3FECYTJlfRQlJlP-5" value="&lt;p style=&quot;margin:0px;margin-top:4px;text-align:center;&quot;&gt;&lt;i&gt;&amp;lt;&amp;lt;Interface&amp;gt;&amp;gt;&lt;/i&gt;&lt;br&gt;&lt;b&gt;Handler&lt;/b&gt;&lt;/p&gt;&lt;p style=&quot;margin:0px;margin-left:4px;&quot;&gt;&lt;br&gt;&lt;/p&gt;&lt;hr size=&quot;1&quot;&gt;&lt;p style=&quot;margin:0px;margin-left:4px;&quot;&gt;+ handle()&lt;/p&gt;" style="verticalAlign=top;align=left;overflow=fill;fontSize=12;fontFamily=Helvetica;html=1;" vertex="1" parent="1">
          <mxGeometry x="319" y="170" width="190" height="90" as="geometry" />
        </mxCell>
        <mxCell id="w3v8V3FECYTJlfRQlJlP-6" value="ConcreteHandler" style="swimlane;fontStyle=1;align=center;verticalAlign=top;childLayout=stackLayout;horizontal=1;startSize=26;horizontalStack=0;resizeParent=1;resizeParentMax=0;resizeLast=0;collapsible=1;marginBottom=0;" vertex="1" parent="1">
          <mxGeometry x="335" y="540" width="160" height="86" as="geometry" />
        </mxCell>
        <mxCell id="w3v8V3FECYTJlfRQlJlP-7" value="...." style="text;strokeColor=none;fillColor=none;align=left;verticalAlign=top;spacingLeft=4;spacingRight=4;overflow=hidden;rotatable=0;points=[[0,0.5],[1,0.5]];portConstraint=eastwest;" vertex="1" parent="w3v8V3FECYTJlfRQlJlP-6">
          <mxGeometry y="26" width="160" height="26" as="geometry" />
        </mxCell>
        <mxCell id="w3v8V3FECYTJlfRQlJlP-8" value="" style="line;strokeWidth=1;fillColor=none;align=left;verticalAlign=middle;spacingTop=-1;spacingLeft=3;spacingRight=3;rotatable=0;labelPosition=right;points=[];portConstraint=eastwest;strokeColor=inherit;" vertex="1" parent="w3v8V3FECYTJlfRQlJlP-6">
          <mxGeometry y="52" width="160" height="8" as="geometry" />
        </mxCell>
        <mxCell id="w3v8V3FECYTJlfRQlJlP-9" value="+ handle()" style="text;strokeColor=none;fillColor=none;align=left;verticalAlign=top;spacingLeft=4;spacingRight=4;overflow=hidden;rotatable=0;points=[[0,0.5],[1,0.5]];portConstraint=eastwest;" vertex="1" parent="w3v8V3FECYTJlfRQlJlP-6">
          <mxGeometry y="60" width="160" height="26" as="geometry" />
        </mxCell>
        <mxCell id="w3v8V3FECYTJlfRQlJlP-11" value="" style="endArrow=block;dashed=1;endFill=0;endSize=12;html=1;rounded=0;exitX=0.5;exitY=0;exitDx=0;exitDy=0;" edge="1" parent="1" source="w3v8V3FECYTJlfRQlJlP-1" target="w3v8V3FECYTJlfRQlJlP-5">
          <mxGeometry width="160" relative="1" as="geometry">
            <mxPoint x="469.5" y="230" as="sourcePoint" />
            <mxPoint x="629.5" y="230" as="targetPoint" />
          </mxGeometry>
        </mxCell>
        <mxCell id="w3v8V3FECYTJlfRQlJlP-13" value="Extends" style="endArrow=block;endSize=16;endFill=0;html=1;rounded=0;exitX=0.5;exitY=0;exitDx=0;exitDy=0;entryX=0.504;entryY=0.992;entryDx=0;entryDy=0;entryPerimeter=0;" edge="1" parent="1" source="w3v8V3FECYTJlfRQlJlP-6" target="w3v8V3FECYTJlfRQlJlP-12">
          <mxGeometry width="160" relative="1" as="geometry">
            <mxPoint x="460" y="480" as="sourcePoint" />
            <mxPoint x="620" y="480" as="targetPoint" />
          </mxGeometry>
        </mxCell>
        <mxCell id="w3v8V3FECYTJlfRQlJlP-14" value="" style="endArrow=diamondThin;endFill=0;endSize=24;html=1;rounded=0;entryX=1.019;entryY=1.146;entryDx=0;entryDy=0;entryPerimeter=0;exitX=1;exitY=0.5;exitDx=0;exitDy=0;" edge="1" parent="1" source="w3v8V3FECYTJlfRQlJlP-5" target="w3v8V3FECYTJlfRQlJlP-2">
          <mxGeometry width="160" relative="1" as="geometry">
            <mxPoint x="610" y="350" as="sourcePoint" />
            <mxPoint x="770" y="350" as="targetPoint" />
            <Array as="points">
              <mxPoint x="600" y="215" />
              <mxPoint x="600" y="386" />
            </Array>
          </mxGeometry>
        </mxCell>
        <mxCell id="w3v8V3FECYTJlfRQlJlP-15" value="" style="endArrow=none;dashed=1;html=1;dashPattern=1 3;strokeWidth=2;rounded=0;entryX=0;entryY=0.5;entryDx=0;entryDy=0;exitX=0;exitY=0;exitDx=210;exitDy=60;exitPerimeter=0;" edge="1" parent="1" source="w3v8V3FECYTJlfRQlJlP-16" target="w3v8V3FECYTJlfRQlJlP-12">
          <mxGeometry width="50" height="50" relative="1" as="geometry">
            <mxPoint x="230" y="450" as="sourcePoint" />
            <mxPoint x="200" y="430" as="targetPoint" />
          </mxGeometry>
        </mxCell>
        <mxCell id="w3v8V3FECYTJlfRQlJlP-16" value="if(next == null) {&lt;br&gt;&lt;span style=&quot;white-space: pre;&quot;&gt;	&lt;/span&gt;return true;&lt;br&gt;}&lt;br&gt;&lt;br&gt;return handle();" style="shape=note;whiteSpace=wrap;html=1;backgroundOutline=1;darkOpacity=0.05;align=left;fillColor=#6d8764;fontColor=#ffffff;strokeColor=#3A5431;" vertex="1" parent="1">
          <mxGeometry x="50" y="390" width="210" height="90" as="geometry" />
        </mxCell>
        <mxCell id="w3v8V3FECYTJlfRQlJlP-19" value="// 相关逻辑操作&lt;br&gt;.....&lt;br&gt;return checkNext();" style="shape=note;whiteSpace=wrap;html=1;backgroundOutline=1;darkOpacity=0.05;align=left;fillColor=#6d8764;fontColor=#ffffff;strokeColor=#3A5431;" vertex="1" parent="1">
          <mxGeometry x="570" y="600" width="190" height="64" as="geometry" />
        </mxCell>
        <mxCell id="w3v8V3FECYTJlfRQlJlP-20" value="" style="endArrow=none;dashed=1;html=1;dashPattern=1 3;strokeWidth=2;rounded=0;entryX=0;entryY=0.5;entryDx=0;entryDy=0;entryPerimeter=0;exitX=1;exitY=0.5;exitDx=0;exitDy=0;" edge="1" parent="1" source="w3v8V3FECYTJlfRQlJlP-9" target="w3v8V3FECYTJlfRQlJlP-19">
          <mxGeometry width="50" height="50" relative="1" as="geometry">
            <mxPoint x="470" y="710" as="sourcePoint" />
            <mxPoint x="520" y="660" as="targetPoint" />
          </mxGeometry>
        </mxCell>
      </root>
    </mxGraphModel>
  </diagram>
</mxfile>
